/* XPM */
static char *bc9332c1479644a6f3f4ce95eb652a14[] = {
/* columns rows colors chars-per-pixel */
"16 16 136 2 ",
"   c #00B337",
".  c #00B139",
"X  c #00B13D",
"o  c #00B43F",
"O  c #00BC3C",
"+  c #00B641",
"@  c #00B546",
"#  c #00B943",
"$  c #00BC42",
"%  c #00BD45",
"&  c #05B74F",
"*  c #03BA49",
"=  c #00BE49",
"-  c #02BF4C",
";  c #09BF4F",
":  c #14BF5B",
">  c #15BE5C",
",  c #00C641",
"<  c #00C249",
"1  c #03C24C",
"2  c #0BC04C",
"3  c #08C04F",
"4  c #0AC54F",
"5  c #05C84C",
"6  c #04C350",
"7  c #0DC257",
"8  c #00C950",
"9  c #0BC954",
"0  c #09CE54",
"q  c #0DC25D",
"w  c #0CCC58",
"e  c #14C259",
"r  c #17C259",
"t  c #10C35D",
"y  c #1AC162",
"u  c #18C664",
"i  c #1EC369",
"p  c #1AC96B",
"a  c #17D363",
"s  c #1BD264",
"d  c #20CE64",
"f  c #22C569",
"g  c #26C469",
"h  c #20C36E",
"j  c #27C66C",
"k  c #2CC46F",
"l  c #20CB6E",
"z  c #29D166",
"x  c #20D168",
"c  c #2CCA74",
"v  c #2DCF7A",
"b  c #2BDC72",
"n  c #34D974",
"m  c #33DD77",
"M  c #38DE7C",
"N  c #3CDF7C",
"B  c #3CDF7D",
"V  c #45DD7F",
"C  c #42E07F",
"Z  c #32D181",
"A  c #35D184",
"S  c #37D387",
"D  c #32D485",
"F  c #35D587",
"G  c #41DF81",
"H  c #43E384",
"J  c #41E684",
"K  c #48E687",
"L  c #56E38D",
"P  c #58E68F",
"I  c #54E98F",
"U  c #45E298",
"Y  c #4AE19B",
"T  c #63EA9A",
"R  c #52EDAF",
"E  c #55EDAF",
"W  c #57EEB2",
"Q  c #59EEB7",
"!  c #5DEFB7",
"~  c #56F1B3",
"^  c #58F1B5",
"/  c #5BF3B9",
"(  c #5DF1BA",
")  c #5FF3BB",
"_  c #5AF4BA",
"`  c #5BF3BC",
"'  c #5FF3BE",
"]  c #5BF7BC",
"[  c #5DF7BC",
"{  c #5EF9BD",
"}  c #6FEEA2",
"|  c #76EAA3",
" . c #7CF2AE",
".. c #5FF9C1",
"X. c #69FFD0",
"o. c #69FFD3",
"O. c #6BFFD4",
"+. c #6EFFD7",
"@. c #6DFFD8",
"#. c #70FFDB",
"$. c #73FFDE",
"%. c #73FFE3",
"&. c #77FFE3",
"*. c #76FFE7",
"=. c #8FEFB6",
"-. c #8CF0B5",
";. c #92F2B8",
":. c #95F3BA",
">. c #94F1BD",
",. c #9FF6C1",
"<. c #A2F7C5",
"1. c #B6F8CF",
"2. c #B7FAD2",
"3. c #BCF8D5",
"4. c #BEF8D4",
"5. c #C1FAD9",
"6. c #C3FED9",
"7. c #C5FCDB",
"8. c #CEFBE0",
"9. c #CAFFE1",
"0. c #CFFFE4",
"q. c #D4F9E2",
"w. c #D2FFE3",
"e. c #D3FFE4",
"r. c #D8FAE6",
"t. c #DBFDE7",
"y. c #DFFBE9",
"u. c #DCFFEA",
"i. c #E1FFEF",
"p. c #E6FEF0",
"a. c #EAFFF3",
"s. c #F2FFF6",
"d. c #F3FFF8",
"f. c #F4FFFA",
"g. c #FAFFFF",
"h. c white",
/* pixels */
"h.h.h.h.h.h.h.h.h.h.h.h.h.h.h.h.",
"h.h.h.h.a.2.:.=.>.5.u.h.h.h.h.h.",
"h.h.h.<.L w = - = d N 2.h.h.h.h.",
"h.h.,.a 6   X o . o O n ,.s.h.h.",
"h.0.V O : f c g k j & < G 3.h.h.",
"f. .4 @ F ^ / U W _ S # 9 | h.h.",
"y.H % h E $.#.] @.$.! t 3 C e.h.",
"q.M 6 Z ~ +.O...o.o.' l r m 5.h.",
"r.B 1 v R +.O.[ o.o./ p r m 5.h.",
"u.J % f R *.%.[ $.*.( q ; V w.h.",
"f. .5 + Z Q ) Y W / S # 0 | h.h.",
"h.i.P , 7 t f > y u * 5 I 8.h.h.",
"h.h.9.K z O @ * o 3 9 T 9.h.h.h.",
"h.h.h.2.} b s x s M I 6.h.h.h.h.",
"h.h.h.h.i.1.;.-.;.5.t.h.h.h.h.h.",
"h.h.h.h.h.h.h.g.h.h.h.h.h.h.h.h."
};
