/* XPM */
static char *_b44fd1f43594ccfc83b2b074a61a841[] = {
/* columns rows colors chars-per-pixel */
"64 64 101 2 ",
"   c None",
".  c #1BAD56",
"X  c #1CAF58",
"o  c #1CB057",
"O  c #17BD56",
"+  c #1CB359",
"@  c #1DBC5D",
"#  c #1EBF60",
"$  c #1CC15D",
"%  c #1FC362",
"&  c #21C463",
"*  c #21CA65",
"=  c #24C769",
"-  c #26CA6B",
";  c #28CD6C",
":  c #21D067",
">  c #23D46A",
",  c #29D26E",
"<  c #23DB6D",
"1  c #28D96F",
"2  c #2ACD72",
"3  c #2ECF78",
"4  c #2CD670",
"5  c #25DE70",
"6  c #2CDB73",
"7  c #32D27E",
"8  c #14E66A",
"9  c #1BE76D",
"0  c #16E86C",
"q  c #1BE96F",
"w  c #1FE770",
"e  c #1EE971",
"r  c #21E36F",
"t  c #23E672",
"y  c #2AE576",
"u  c #23E973",
"i  c #29E976",
"p  c #2DE879",
"a  c #34E97D",
"s  c #35D582",
"d  c #38D786",
"f  c #3BDA8B",
"g  c #3EDD92",
"h  c #37E980",
"j  c #3CE982",
"k  c #40DE94",
"l  c #40EA85",
"z  c #46EB89",
"x  c #4CEB8C",
"c  c #50EC8F",
"v  c #47E49D",
"b  c #48E69F",
"n  c #54ED92",
"m  c #5CED97",
"M  c #62EE9A",
"N  c #68EE9E",
"B  c #47E5A0",
"V  c #4AE6A2",
"C  c #4CE8A4",
"Z  c #4FEBAA",
"A  c #52EEAF",
"S  c #55EFB3",
"D  c #57F1B6",
"F  c #59F2B7",
"G  c #5AF4BA",
"H  c #6FEFA3",
"J  c #71EFA4",
"K  c #6FF0A3",
"L  c #75F0A6",
"P  c #77F0A8",
"I  c #7DF1AB",
"U  c #5DF7C0",
"Y  c #5FF9C2",
"T  c #61FAC4",
"R  c #66FFCC",
"E  c #68FFCE",
"W  c #6AFFD2",
"Q  c #81F1AE",
"!  c #84F2B0",
"~  c #8EF2B6",
"^  c #94F3BB",
"/  c #9FF4C2",
"(  c #A2F5C4",
")  c #ABF6C9",
"_  c #B1F6CD",
"`  c #B7F7D1",
"'  c #B9F7D2",
"]  c #BCF8D5",
"[  c #C0F8D7",
"{  c #C5F9DA",
"}  c #CAF9DD",
"|  c #CEFAE0",
" . c #D3FAE3",
".. c #DAFBE7",
"X. c #DBFCE9",
"o. c #E5FCEE",
"O. c #E7FCF0",
"+. c #EDFDF3",
"@. c #F1FDF6",
"#. c #F5FEF9",
"$. c #FFFFFF",
/* pixels */
"                                                                                                                                ",
"                                                                                                                                ",
"                                                                                                                                ",
"                                                                                                                                ",
"                                                                                                                                ",
"                                                                                                                                ",
"                                                                                                                                ",
"                                                                                                                                ",
"$.$.$.$.$.$.$.$.$.$.$.$.$.$.$.$.$.$.$.$.$.$.$.$.$.$.$.$.$.$.$.$.$.$.$.$.$.$.$.$.$.$.$.$.$.$.$.$.$.$.$.$.$.$.$.$.$.$.$.$.$.$.$.$.",
"$.$.$.$.$.$.$.$.$.$.$.$.$.$.$.$.$.$.$.$.$.$.$.$.$.$.$.$.$.$.$.$.$.$.$.$.$.$.$.$.$.$.$.$.$.$.$.$.$.$.$.$.$.$.$.$.$.$.$.$.$.$.$.$.",
"$.$.$.$.$.$.$.$.$.$.$.$.$.$.$.$.$.$.$.$.$.$.$.$.$.$.$.$.$.$.$.$.$.$.$.$.$.$.$.$.$.$.$.$.$.$.$.$.$.$.$.$.$.$.$.$.$.$.$.$.$.$.$.$.",
"$.$.$.$.$.$.$.$.$.$.$.$.$.$.$.$.$.$.$.$.$.$.$.$.$.$.$.$.$.$.$.$.$.$.$.$.$.$.$.$.$.$.$.$.$.$.$.$.$.$.$.$.$.$.$.$.$.$.$.$.$.$.$.$.",
"$.$.$.$.$.$.$.$.$.$.$.$.$.$.$.$.$.$.$.$.$.$.$.$.$.$.$.$.$.$.$.$.$.$.$.$.$.$.$.$.$.$.$.$.$.$.$.$.$.$.$.$.$.$.$.$.$.$.$.$.$.$.$.$.",
"$.$.$.$.$.$.$.$.$.$.$.$.$.$.$.$.$.$.$.$.$.$.$.$.$.$.$.$.$.$.$.$.$.$.$.$.$.$.$.$.$.$.$.$.$.$.$.$.$.$.$.$.$.$.$.$.$.$.$.$.$.$.$.$.",
"$.$.$.$.$.$.$.$.$.$.$.$.$.$.$.$.$.$.$.$.$.$.$.$.$.$.$.$.$.#.O. .} { } X.@.$.$.$.$.$.$.$.$.$.$.$.$.$.$.$.$.$.$.$.$.$.$.$.$.$.$.$.",
"$.$.$.$.$.$.$.$.$.$.$.$.$.$.$.$.$.$.$.$.$.$.$.$.$.$.#.{ ~ M z h a a a j x J ( X.$.$.$.$.$.$.$.$.$.$.$.$.$.$.$.$.$.$.$.$.$.$.$.$.",
"$.$.$.$.$.$.$.$.$.$.$.$.$.$.$.$.$.$.$.$.$.$.$.$.+.) m p u u u u t w t t w u i l I | $.$.$.$.$.$.$.$.$.$.$.$.$.$.$.$.$.$.$.$.$.$.",
"$.$.$.$.$.$.$.$.$.$.$.$.$.$.$.$.$.$.$.$.$.$.$.{ M i e u t < % * % @ % * : 5 u u e a ~ +.$.$.$.$.$.$.$.$.$.$.$.$.$.$.$.$.$.$.$.$.",
"$.$.$.$.$.$.$.$.$.$.$.$.$.$.$.$.$.$.$.$.$.#./ a e u 5 % + . . . o o X . . . @ : t u 0 n  .$.$.$.$.$.$.$.$.$.$.$.$.$.$.$.$.$.$.$.",
"$.$.$.$.$.$.$.$.$.$.$.$.$.$.$.$.$.$.$.$.#.~ t e u % + . + # % % % % % % % # . + @ < u 8 j { $.$.$.$.$.$.$.$.$.$.$.$.$.$.$.$.$.$.",
"$.$.$.$.$.$.$.$.$.$.$.$.$.$.$.$.$.$.$.$.^ 9 q t @ . @ % % % % % % % * % % % % % . . * u 0 j } $.$.$.$.$.$.$.$.$.$.$.$.$.$.$.$.$.",
"$.$.$.$.$.$.$.$.$.$.$.$.$.$.$.$.$.$.$.) t e 5 + + % % % % % % % % % % % % % % % % @ . * u 0 n o.$.$.$.$.$.$.$.$.$.$.$.$.$.$.$.$.",
"$.$.$.$.$.$.$.$.$.$.$.$.$.$.$.$.$.$. .j 0 t @ + % % % % % % % % % % % % % % % % % % # o % u 9 I #.$.$.$.$.$.$.$.$.$.$.$.$.$.$.$.",
"$.$.$.$.$.$.$.$.$.$.$.$.$.$.$.$.$.#.J 0 t % + % % % % % % % % % % % % % % % % % % % % # + : u p ' $.$.$.$.$.$.$.$.$.$.$.$.$.$.$.",
"$.$.$.$.$.$.$.$.$.$.$.$.$.$.$.$.$.[ p u * + & % & 7 k g g g g g s = f k k g g k g - % % # @ t t M #.$.$.$.$.$.$.$.$.$.$.$.$.$.$.",
"$.$.$.$.$.$.$.$.$.$.$.$.$.$.$.$.#.J 9 t @ # % % & b W E E E E E B 2 T W E E E W T 7 @ % % @ * t a ] $.$.$.$.$.$.$.$.$.$.$.$.$.$.",
"$.$.$.$.$.$.$.$.$.$.$.$.$.$.$.$...j u : @ % % % % b W E R R R R C 2 T W R R R E R 7 $ % % % @ t e I $.$.$.$.$.$.$.$.$.$.$.$.$.$.",
"$.$.$.$.$.$.$.$.$.$.$.$.$.$.$.$.) u u % # % % % % b W E R R R E B 2 T E R R R R Y 7 $ % % % @ > 9 x +.$.$.$.$.$.$.$.$.$.$.$.$.$.",
"$.$.$.$.$.$.$.$.$.$.$.$.$.$.$.$.Q e < % % % $ O @ v W E R R R R B - G W R R R R T 7 O @ % % % * t a } $.$.$.$.$.$.$.$.$.$.$.$.$.",
"$.$.$.$.$.$.$.$.$.$.$.$.$.$.$.#.M u < # % % - - - V E R R R R R A s T E R R R R T d = - * % % * 9 i ) $.$.$.$.$.$.$.$.$.$.$.$.$.",
"$.$.$.$.$.$.$.$.$.$.$.$.$.$.$.+.x u > $ $ % B T U Y E R R R R R T T R R R R R R R U T F 2 @ % % r u ^ $.$.$.$.$.$.$.$.$.$.$.$.$.",
"$.$.$.$.$.$.$.$.$.$.$.$.$.$.$.O.x u > % % & 7 f f S E E R R R R E E R R R R R R R b d d - $ % % r t ~ $.$.$.$.$.$.$.$.$.$.$.$.$.",
"$.$.$.$.$.$.$.$.$.$.$.$.$.$.$.+.z t 1 # % % d g g D E R R R R R R E R R R R R R T C k k - # % * r 9 ~ $.$.$.$.$.$.$.$.$.$.$.$.$.",
"$.$.$.$.$.$.$.$.$.$.$.$.$.$.$.+.c u 5 # % % B G G Y R R R R R R T F R E R R R R R U G S 2 @ % * t t ^ $.$.$.$.$.$.$.$.$.$.$.$.$.",
"$.$.$.$.$.$.$.$.$.$.$.$.$.$.$.#.m u 5 * % % % % = B E E R R R R V 2 T W R R R R T s & * & % % - t y ) $.$.$.$.$.$.$.$.$.$.$.$.$.",
"$.$.$.$.$.$.$.$.$.$.$.$.$.$.$.$.I w t % # % % $ $ b E R R R R E V ; Y W R R R R T 7 O $ & # & > 9 a { $.$.$.$.$.$.$.$.$.$.$.$.$.",
"$.$.$.$.$.$.$.$.$.$.$.$.$.$.$.$.) w i ; % % % % % b W E R R R E V 2 T W R R R R T s O % % % % 1 e x +.$.$.$.$.$.$.$.$.$.$.$.$.$.",
"$.$.$.$.$.$.$.$.$.$.$.$.$.$.$.$...h w 5 % % % % % b E R R E R E V ; Y W R R R R T 7 $ & % % = t w P $.$.$.$.$.$.$.$.$.$.$.$.$.$.",
"$.$.$.$.$.$.$.$.$.$.$.$.$.$.$.$.#.H 9 i = % % % % B W E E E E W C 2 T W E E E E R 7 O % % % 1 t p ' $.$.$.$.$.$.$.$.$.$.$.$.$.$.",
"$.$.$.$.$.$.$.$.$.$.$.$.$.$.$.$.$.` i w 4 = % % % g G D D D D F k - A F D D D F S 3 % % % - i t m @.$.$.$.$.$.$.$.$.$.$.$.$.$.$.",
"$.$.$.$.$.$.$.$.$.$.$.$.$.$.$.$.$.+.N 9 y ; & % % & = = = = = = = & = = - = = = = * % # * 4 u p _ $.$.$.$.$.$.$.$.$.$.$.$.$.$.$.",
"$.$.$.$.$.$.$.$.$.$.$.$.$.$.$.$.$.$.} a 8 y - $ & % % % % % % % % % % % % % % % % % % % 1 y 9 J #.$.$.$.$.$.$.$.$.$.$.$.$.$.$.$.",
"$.$.$.$.$.$.$.$.$.$.$.$.$.$.$.$.$.$.$.( 9 q y = $ & & & & % % & % % % % % % % % % # & 4 y 8 z ..$.$.$.$.$.$.$.$.$.$.$.$.$.$.$.$.",
"$.$.$.$.$.$.$.$.$.$.$.$.$.$.$.$.$.$.$.#.Q 8 t y , # $ & % % % % % & % % % % % % # = 4 y 8 a { $.$.$.$.$.$.$.$.$.$.$.$.$.$.$.$.$.",
"$.$.$.$.$.$.$.$.$.$.$.$.$.$.$.$.$.$.$.$.#.Q 9 q y 4 = # # # % % % % % % % % $ % ; 6 u 8 a ' $.$.$.$.$.$.$.$.$.$.$.$.$.$.$.$.$.$.",
"$.$.$.$.$.$.$.$.$.$.$.$.$.$.$.$.$.$.$.$.$.#.^ y q i y 4 - * % % # # # # # * ; 4 p u 8 x } $.$.$.$.$.$.$.$.$.$.$.$.$.$.$.$.$.$.$.",
"$.$.$.$.$.$.$.$.$.$.$.$.$.$.$.$.$.$.$.$.$.$.$.' n t u i y 6 4 , , ; , 4 6 y p i e p I o.$.$.$.$.$.$.$.$.$.$.$.$.$.$.$.$.$.$.$.$.",
"$.$.$.$.$.$.$.$.$.$.$.$.$.$.$.$.$.$.$.$.$.$.$.$.o.( x i u t t i y i u i t t i h K { #.$.$.$.$.$.$.$.$.$.$.$.$.$.$.$.$.$.$.$.$.$.",
"$.$.$.$.$.$.$.$.$.$.$.$.$.$.$.$.$.$.$.$.$.$.$.$.$.$.+.` I n j a p p a a z N ^  .#.$.$.$.$.$.$.$.$.$.$.$.$.$.$.$.$.$.$.$.$.$.$.$.",
"$.$.$.$.$.$.$.$.$.$.$.$.$.$.$.$.$.$.$.$.$.$.$.$.$.$.$.$.$.#...{ ] ` ] | o.#.$.$.$.$.$.$.$.$.$.$.$.$.$.$.$.$.$.$.$.$.$.$.$.$.$.$.",
"$.$.$.$.$.$.$.$.$.$.$.$.$.$.$.$.$.$.$.$.$.$.$.$.$.$.$.$.$.$.$.$.$.$.$.$.$.$.$.$.$.$.$.$.$.$.$.$.$.$.$.$.$.$.$.$.$.$.$.$.$.$.$.$.",
"$.$.$.$.$.$.$.$.$.$.$.$.$.$.$.$.$.$.$.$.$.$.$.$.$.$.$.$.$.$.$.$.$.$.$.$.$.$.$.$.$.$.$.$.$.$.$.$.$.$.$.$.$.$.$.$.$.$.$.$.$.$.$.$.",
"$.$.$.$.$.$.$.$.$.$.$.$.$.$.$.$.$.$.$.$.$.$.$.$.$.$.$.$.$.$.$.$.$.$.$.$.$.$.$.$.$.$.$.$.$.$.$.$.$.$.$.$.$.$.$.$.$.$.$.$.$.$.$.$.",
"$.$.$.$.$.$.$.$.$.$.$.$.$.$.$.$.$.$.$.$.$.$.$.$.$.$.$.$.$.$.$.$.$.$.$.$.$.$.$.$.$.$.$.$.$.$.$.$.$.$.$.$.$.$.$.$.$.$.$.$.$.$.$.$.",
"$.$.$.$.$.$.$.$.$.$.$.$.$.$.$.$.$.$.$.$.$.$.$.$.$.$.$.$.$.$.$.$.$.$.$.$.$.$.$.$.$.$.$.$.$.$.$.$.$.$.$.$.$.$.$.$.$.$.$.$.$.$.$.$.",
"$.$.$.$.$.$.$.$.$.$.$.$.$.$.$.$.$.$.$.$.$.$.$.$.$.$.$.$.$.$.$.$.$.$.$.$.$.$.$.$.$.$.$.$.$.$.$.$.$.$.$.$.$.$.$.$.$.$.$.$.$.$.$.$.",
"$.$.$.$.$.$.$.$.$.$.$.$.$.$.$.$.$.$.$.$.$.$.$.$.$.$.$.$.$.$.$.$.$.$.$.$.$.$.$.$.$.$.$.$.$.$.$.$.$.$.$.$.$.$.$.$.$.$.$.$.$.$.$.$.",
"$.$.$.$.$.$.$.$.$.$.$.$.$.$.$.$.$.$.$.$.$.$.$.$.$.$.$.$.$.$.$.$.$.$.$.$.$.$.$.$.$.$.$.$.$.$.$.$.$.$.$.$.$.$.$.$.$.$.$.$.$.$.$.$.",
"$.$.$.$.$.$.$.$.$.$.$.$.$.$.$.$.$.$.$.$.$.$.$.$.$.$.$.$.$.$.$.$.$.$.$.$.$.$.$.$.$.$.$.$.$.$.$.$.$.$.$.$.$.$.$.$.$.$.$.$.$.$.$.$.",
"$.$.$.$.$.$.$.$.$.$.$.$.$.$.$.$.$.$.$.$.$.$.$.$.$.$.$.$.$.$.$.$.$.$.$.$.$.$.$.$.$.$.$.$.$.$.$.$.$.$.$.$.$.$.$.$.$.$.$.$.$.$.$.$.",
"$.$.$.$.$.$.$.$.$.$.$.$.$.$.$.$.$.$.$.$.$.$.$.$.$.$.$.$.$.$.$.$.$.$.$.$.$.$.$.$.$.$.$.$.$.$.$.$.$.$.$.$.$.$.$.$.$.$.$.$.$.$.$.$.",
"$.$.$.$.$.$.$.$.$.$.$.$.$.$.$.$.$.$.$.$.$.$.$.$.$.$.$.$.$.$.$.$.$.$.$.$.$.$.$.$.$.$.$.$.$.$.$.$.$.$.$.$.$.$.$.$.$.$.$.$.$.$.$.$.",
"$.$.$.$.$.$.$.$.$.$.$.$.$.$.$.$.$.$.$.$.$.$.$.$.$.$.$.$.$.$.$.$.$.$.$.$.$.$.$.$.$.$.$.$.$.$.$.$.$.$.$.$.$.$.$.$.$.$.$.$.$.$.$.$.",
"$.$.$.$.$.$.$.$.$.$.$.$.$.$.$.$.$.$.$.$.$.$.$.$.$.$.$.$.$.$.$.$.$.$.$.$.$.$.$.$.$.$.$.$.$.$.$.$.$.$.$.$.$.$.$.$.$.$.$.$.$.$.$.$."
};
