/* XPM */
static char *_08a4c85b49e4cd9f8c2ca37cfad3b7c[] = {
/* columns rows colors chars-per-pixel */
"32 32 191 2 ",
"   c white",
".  c #FDFFFE",
"X  c #DCFBE9",
"o  c #A1F5C3",
"O  c #81F2AF",
"+  c #7DF2AD",
"@  c #7FF2AD",
"#  c #95F4BB",
"$  c #CEFADF",
"%  c #F9FEFB",
"&  c #DFFCEB",
"*  c #84F2B1",
"=  c #40E984",
"-  c #23DE6F",
";  c #1ED267",
":  c #1DCD64",
">  c #1DD065",
",  c #21DA6C",
"<  c #34E77D",
"1  c #6EF0A3",
"2  c #CAF9DD",
"3  c #C9F9DC",
"4  c #50EC8F",
"5  c #20D96B",
"6  c #1DC561",
"7  c #1EBD5E",
"8  c #1DB95D",
"9  c #1DB95C",
"0  c #1EBB5E",
"q  c #1EC260",
"w  c #1ED367",
"e  c #3CE982",
"r  c #ADF6CB",
"t  c #D3FAE3",
"y  c #4AEB8B",
"u  c #1EBE5F",
"i  c #1FC362",
"p  c #1FC060",
"a  c #1EBC5E",
"s  c #1ECC64",
"d  c #33E67C",
"f  c #B6F7D0",
"g  c #F6FEF9",
"h  c #6AEFA0",
"j  c #1FD669",
"k  c #1FC262",
"l  c #1FC463",
"z  c #1FC363",
"x  c #20C463",
"c  c #1EBD5F",
"v  c #1FD066",
"b  c #47EB8A",
"n  c #DAFBE7",
"m  c #2CE476",
"M  c #1FC462",
"N  c #1EC160",
"B  c #30D17C",
"V  c #4DE9A6",
"C  c #4DEAA6",
"Z  c #37D786",
"A  c #47E59D",
"S  c #4DEAA7",
"D  c #1EC361",
"F  c #20DA6B",
"G  c #92F4B9",
"H  c #7BF1AB",
"J  c #1ED568",
"K  c #1EC060",
"L  c #1DC260",
"P  c #3AD98A",
"I  c #67FFCE",
"U  c #67FFCD",
"Y  c #45E39B",
"T  c #5EF7C0",
"R  c #68FFCF",
"E  c #45E39A",
"W  c #1FC161",
"Q  c #51EC90",
"!  c #EEFDF4",
"~  c #F4FEF8",
"^  c #58ED95",
"/  c #1ECF66",
"(  c #25C86C",
")  c #40DE93",
"_  c #66FFCC",
"`  c #4AE7A2",
"'  c #5EF8C1",
"]  c #66FFCD",
"[  c #49E6A1",
"{  c #27CA6E",
"}  c #21C464",
"|  c #1FC863",
" . c #30E67A",
".. c #CCFADE",
"X. c #E8FCF0",
"o. c #43EA87",
"O. c #1FD067",
"+. c #39D989",
"@. c #50ECAA",
"#. c #63FDC8",
"$. c #65FECB",
"%. c #55F0B2",
"&. c #3EDD90",
"*. c #25C76A",
"=. c #1FC663",
"-. c #27E373",
";. c #B5F7D0",
":. c #44EA87",
">. c #20D167",
",. c #39D889",
"<. c #4FEBAA",
"1. c #61FAC4",
"2. c #65FECA",
"3. c #3EDC90",
"4. c #24C76A",
"5. c #20C864",
"6. c #27E473",
"7. c #59ED95",
"8. c #1FD268",
"9. c #23C668",
"0. c #3EDD91",
"q. c #47E59F",
"w. c #5EF8C0",
"e. c #48E59F",
"r. c #25C86B",
"t. c #20C363",
"y. c #21CD67",
"u. c #31E77A",
"i. c #CCF9DE",
"p. c #21DB6C",
"a. c #5EF7BF",
"s. c #45E29A",
"d. c #21D56A",
"f. c #52EC90",
"g. c #2DE678",
"h. c #22CD68",
"j. c #35D583",
"k. c #5AF4BA",
"l. c #53EEAF",
"z. c #5BF5BB",
"x. c #5BF5BC",
"c. c #1EC261",
"v. c #21C765",
"b. c #23E070",
"n. c #92F3BA",
"m. c #F5FEF9",
"M. c #23DD6E",
"N. c #21C465",
"B. c #22C667",
"V. c #22C566",
"C. c #23D76C",
"Z. c #48EB8A",
"A. c #DBFBE8",
"S. c #D4FAE3",
"D. c #4BEB8C",
"F. c #24DC6E",
"G. c #22C865",
"H. c #1FC361",
"J. c #21C563",
"K. c #24D66C",
"L. c #34E77C",
"P. c #52EC91",
"I. c #24E070",
"U. c #25D26B",
"Y. c #22C765",
"T. c #20C362",
"R. c #21C664",
"E. c #25CF6A",
"W. c #25DD6F",
"Q. c #ADF6CA",
"!. c #FCFFFD",
"~. c #DEFBEA",
"^. c #87F2B2",
"/. c #3FEA84",
"(. c #28E273",
"). c #23DB6E",
"_. c #22D86C",
"`. c #23DA6D",
"'. c #27E071",
"]. c #34E87D",
"[. c #72F0A5",
"{. c #CDFADF",
"}. c #FEFFFE",
"|. c #FDFFFD",
" X c #D8FBE6",
".X c #AAF6C9",
"XX c #94F4BB",
"oX c #86F2B2",
"OX c #8FF3B8",
"+X c #A3F5C4",
"@X c #F7FEFA",
/* pixels */
"                                                                ",
"                                                                ",
"                                                                ",
"                        . X o O + @ # $ %                       ",
"                      & * = - ; : > , < 1 2                     ",
"                    3 4 5 6 7 8 8 9 0 q w e r .                 ",
"                  t y ; 7 u i i i i i p a s d f                 ",
"                g h j u k l z z i z z x i c v b n               ",
"                f m M N B V C V Z A S S Z D p F G               ",
"                H J K L P I I U Y T R R E q W v Q !             ",
"              ~ ^ / k ( ) _ _ _ ` ' ] U [ { } |  ...            ",
"              X.o.O.} +.@._ _ _ #.$._ U %.&.*.=.-.;.            ",
"              X.:.>.} ,.<._ _ _ 1.2._ U %.3.4.5.6.;.            ",
"              ~ 7.8.i 9.0._ _ _ q.w.] U e.r.t.y.u.i.            ",
"                H p.x L P U U U Y a.I R s.q k d.f.!             ",
"                f g.h.q j.k.k.k.0.l.z.x.&.c.v.b.n.              ",
"                m.h M.v.N.r.r.r.B.4.r.r.V.x C.Z.A.              ",
"                  S.D.F.G.c.c.H.i H.D c.J.K.L.f                 ",
"                    2 P.I.U.Y.T.i i R.E.W.e Q.!.                ",
"                      ~.^./.(.)._.`.'.].[.{.}.                  ",
"                        |. X.XXXoXOX+X2 @X                      ",
"                                                                ",
"                                                                ",
"                                                                ",
"                                                                ",
"                                                                ",
"                                                                ",
"                                                                ",
"                                                                ",
"                                                                ",
"                                                                ",
"                                                                "
};
